<svg xmlns="http://www.w3.org/2000/svg" width="1333.859" height="797.589" viewBox="0 0 1333.859 797.589"><g transform="translate(-421 -141.205)"><g transform="translate(0.429)"><path d="M154.375,41.834h-6.408v-3.8a11.889,11.889,0,0,0-11.873-11.876H61.881A11.889,11.889,0,0,0,50.007,38.034v3.8H43.6a4.062,4.062,0,0,0-4.06,4.06V66.772a4.062,4.062,0,0,0,4.06,4.06h7.02L52.065,87.8l3.206,37.677,5.417,63.649a4.057,4.057,0,0,0,4.046,3.712h68.789a4.058,4.058,0,0,0,4.044-3.713L140.5,154.7l2.693-31.662,4.445-52.2h6.728a4.062,4.062,0,0,0,4.06-4.06V45.9A4.062,4.062,0,0,0,154.375,41.834Zm-96.248-3.8a3.758,3.758,0,0,1,3.754-3.756h74.213a3.758,3.758,0,0,1,3.754,3.756v3.8H58.127Zm76.925,84.908-2.32,27.352h-67.2L63.3,124.009,60.53,91.519h77.2ZM68.471,184.727l-2.239-26.315h65.8l-2.241,26.315ZM138.418,83.4H59.839L58.77,70.832h80.718Zm11.9-20.686H47.66V49.953H150.315Z" transform="matrix(0.809, 0.588, -0.588, 0.809, 1447.484, 689.666)" fill="#fff" opacity="0.4"/><path d="M114.835,151h-6.408v3.8A11.889,11.889,0,0,1,96.554,166.68H22.341A11.889,11.889,0,0,1,10.467,154.8V151H4.06A4.062,4.062,0,0,1,0,146.944V126.065a4.062,4.062,0,0,1,4.06-4.06h7.02l1.445-16.968L15.731,67.36,21.148,3.712A4.057,4.057,0,0,1,25.194,0H93.984a4.058,4.058,0,0,1,4.044,3.713l2.932,34.429L103.653,69.8,108.1,122h6.728a4.062,4.062,0,0,1,4.06,4.06V146.94A4.062,4.062,0,0,1,114.835,151Zm-96.248,3.8a3.758,3.758,0,0,0,3.754,3.756H96.554a3.758,3.758,0,0,0,3.754-3.756V151H18.587ZM95.512,69.9l-2.32-27.352h-67.2L23.756,68.829l-2.765,32.49h77.2ZM28.931,8.11,26.693,34.425h65.8L90.253,8.11ZM98.878,109.439H20.3L19.23,122.006H99.948Zm11.9,20.687H8.12v12.759H110.775Z" transform="matrix(-0.809, 0.588, -0.588, -0.809, 1754.429, 868.916)" fill="#fff" opacity="0.4"/><g transform="translate(420.571 692.297) rotate(-30)" opacity="0.4"><path d="M23.779,199.747H4.756A4.756,4.756,0,0,1,0,194.991V4.756A4.756,4.756,0,0,1,4.756,0H137.921a4.756,4.756,0,0,1,4.756,4.756V23.779h-9.512V9.512H9.512V190.235H23.779Z" fill="#fff"/><path d="M48.8,53.552H10.749A4.786,4.786,0,0,1,7.372,45.42L45.42,7.372a4.786,4.786,0,0,1,8.133,3.377V48.8A4.756,4.756,0,0,1,48.8,53.552ZM22.211,44.04H44.04V22.211ZM72.576,172.449a4.756,4.756,0,0,1-4.423-6.516l19.024-47.559a4.756,4.756,0,0,1,7.8-1.617l28.535,28.535a4.756,4.756,0,0,1-1.617,7.8L74.335,172.116A4.471,4.471,0,0,1,72.576,172.449ZM93.359,128.6l-12.27,30.58,30.58-12.27Z" transform="translate(22.542 22.542)" fill="#fff"/><path d="M56.313,130.919a4.756,4.756,0,0,1-3.377-1.379L24.4,101a4.756,4.756,0,0,1,0-6.753l80.85-80.85a4.756,4.756,0,0,1,6.753,0L140.54,41.936a4.756,4.756,0,0,1,0,6.753L59.69,129.54A4.756,4.756,0,0,1,56.313,130.919ZM34.483,97.628l21.829,21.829,74.144-74.144L108.628,23.483Z" transform="translate(86.364 45.049)" fill="#fff"/><path d="M0,0H9.512V40.377H0Z" transform="translate(129.795 127.004) rotate(-45)" fill="#fff"/><path d="M0,0H9.512V40.377H0Z" transform="translate(172.599 84.212) rotate(-45)" fill="#fff"/><path d="M153.432,205.747H10.756A4.756,4.756,0,0,1,6,200.991V48.8a4.756,4.756,0,0,1,1.379-3.377L45.426,7.379A4.756,4.756,0,0,1,48.8,6H153.432a4.756,4.756,0,0,1,4.756,4.756V39.291h-9.512V15.512H50.753L15.512,50.753V196.235H148.677V134.409h9.512v66.582A4.756,4.756,0,0,1,153.432,205.747Z" transform="translate(22.535 22.535)" fill="#fff"/><path d="M11,132.9H53.8v9.512H11Zm0-23.779H49.047v9.512H11Zm0-23.779H58.559V94.85H11Zm0-23.779H39.535v9.512H11Zm38.047,0H77.582v9.512H49.047ZM11,37.779H58.559v9.512H11Zm57.071,0h33.291v9.512H68.071ZM49.047,14h66.582v9.512H49.047Z" transform="translate(41.315 52.582)" fill="#fff"/></g><path d="M261.87,239.956a10.2,10.2,0,0,0-12.9,6.45L183.714,442.181a10.2,10.2,0,1,0,19.347,6.451l65.258-195.775a10.2,10.2,0,0,0-6.449-12.9ZM157.091,285.925a10.2,10.2,0,0,0-14.42,0L88.29,340.307a10.2,10.2,0,0,0,0,14.42l54.382,54.382a10.2,10.2,0,1,0,14.418-14.42l-47.172-47.172,47.172-47.172a10.2,10.2,0,0,0,0-14.421Zm152.27,0a10.2,10.2,0,1,0-14.42,14.42l47.172,47.172-47.172,47.172a10.2,10.2,0,1,0,14.418,14.42l54.382-54.382a10.2,10.2,0,0,0,0-14.42Z" transform="translate(1215.485 -98.225)" fill="#fff" opacity="0.5"/></g><g transform="translate(34.004)"><path d="M-178.89,0h59.808V-29.37h19.224V-80.634h-19.224V-192.24h-63.813L-262.461-78.765v49.4h83.571Zm-24.03-80.634,28.836-44.055v44.055Zm123.087-19.758c0,58.74,23.5,99.324,80.1,99.324,56.337,0,80.1-40.584,80.1-99.324,0-58.473-23.763-99.057-80.1-99.057C-56.337-199.449-79.833-158.865-79.833-100.392Zm101.727,0c0,24.564-2.4,43.254-21.627,43.254-19.491,0-21.894-18.69-21.894-43.254,0-24.3,2.4-42.987,21.894-42.987C19.491-143.379,21.894-124.689,21.894-100.392ZM185.832,0H245.64V-29.37h19.224V-80.634H245.64V-192.24H181.827L102.261-78.765v49.4h83.571ZM161.8-80.634l28.836-44.055v44.055Z" transform="translate(1053 597)" fill="#fff"/><path d="M-262.692-27.936V-40.608h6.7c4.9,0,6.984,2.448,6.984,6.336S-251.1-27.936-256-27.936Zm26.208-6.336c0-9.288-6.192-16.272-18.576-16.272H-275V0h12.312V-18.144h7.632C-242.172-18.144-236.484-25.92-236.484-34.272Zm3.96,14.112c0,12.672,7.848,20.736,17.64,20.736,5.976,0,10.224-2.736,12.456-6.264V0h12.312V-40.176h-12.312v5.688c-2.16-3.528-6.408-6.264-12.384-6.264C-224.676-40.752-232.524-32.832-232.524-20.16Zm30.1.072c0,6.408-4.1,9.936-8.784,9.936-4.608,0-8.784-3.6-8.784-10.008s4.176-9.864,8.784-9.864C-206.532-30.024-202.428-26.5-202.428-20.088Zm18.792-.072c0,12.672,7.848,20.736,17.712,20.736,5.9,0,10.152-2.808,12.384-6.336V-.072c0,6.768-3.672,9.216-8.352,9.216-4.248,0-7.272-1.944-8.064-4.968h-12.168c1.08,9.576,8.856,15.624,20.808,15.624,13.9,0,20.088-9.144,20.088-19.872v-40.1H-153.54v5.688c-2.16-3.6-6.48-6.264-12.384-6.264C-175.788-40.752-183.636-32.832-183.636-20.16Zm30.1.072c0,6.408-4.1,9.936-8.784,9.936-4.608,0-8.784-3.6-8.784-10.008s4.176-9.864,8.784-9.864C-157.644-30.024-153.54-26.5-153.54-20.088Zm38.952-10.8c4.1,0,7.56,2.52,7.56,6.912h-15.408C-121.716-28.44-118.62-30.888-114.588-30.888ZM-95.364-13.32h-13.1a6.546,6.546,0,0,1-6.408,3.888c-3.96,0-7.2-2.448-7.632-7.7h27.864a31.113,31.113,0,0,0,.216-3.6c0-12.24-8.28-20.016-20.016-20.016-11.952,0-20.3,7.92-20.3,20.664s8.5,20.664,20.3,20.664C-104.436.576-97.308-5.472-95.364-13.32ZM-44.964,0h12.24V-23.472c0-10.8-6.192-17.136-15.48-17.136a14.732,14.732,0,0,0-12.168,5.76v-5.328H-72.684V0h12.312V-21.816c0-5.472,3.024-8.5,7.7-8.5s7.7,3.024,7.7,8.5Zm60.12-20.088c0-12.744-9.072-20.664-20.88-20.664-11.736,0-20.88,7.92-20.88,20.664S-17.676.576-5.868.576,15.156-7.344,15.156-20.088Zm-29.232,0c0-6.84,3.888-10.008,8.352-10.008,4.32,0,8.352,3.168,8.352,10.008,0,6.768-4.1,10.008-8.5,10.008C-10.332-10.08-14.076-13.32-14.076-20.088Zm37.728,6.12C23.652-3.528,29.484,0,37.836,0H44.1V-10.44H39.708c-2.736,0-3.744-1.008-3.744-3.384V-29.952h8.064V-40.176H35.964v-9.792H23.652v9.792h-4.9v10.224h4.9ZM67.428,0H79.74V-29.952h6.624V-40.176H79.74v-.36c0-4.248,1.656-5.688,6.408-5.4v-10.44c-12.24-.648-18.72,4.536-18.72,15.048v1.152H62.964v10.224h4.464Zm64.008-20.088c0-12.744-9.072-20.664-20.88-20.664-11.736,0-20.88,7.92-20.88,20.664S98.6.576,110.412.576,131.436-7.344,131.436-20.088Zm-29.232,0c0-6.84,3.888-10.008,8.352-10.008,4.32,0,8.352,3.168,8.352,10.008,0,6.768-4.1,10.008-8.5,10.008C105.948-10.08,102.2-13.32,102.2-20.088ZM177.66-40.176H165.348V-18.36c0,5.472-3.024,8.5-7.776,8.5-4.608,0-7.7-3.024-7.7-8.5V-40.176h-12.24V-16.7c0,10.728,6.264,17.136,15.552,17.136a14.639,14.639,0,0,0,12.168-5.9V0H177.66ZM214.236,0h12.24V-23.472c0-10.8-6.192-17.136-15.48-17.136a14.732,14.732,0,0,0-12.168,5.76v-5.328H186.516V0h12.312V-21.816c0-5.472,3.024-8.5,7.7-8.5s7.7,3.024,7.7,8.5ZM232.6-20.16C232.6-7.488,240.444.576,250.308.576c5.9,0,10.152-2.664,12.384-6.336V0H275V-53.28H262.692v18.648a14.748,14.748,0,0,0-12.384-6.12C240.444-40.752,232.6-32.832,232.6-20.16Zm30.1.072c0,6.408-4.1,9.936-8.784,9.936-4.608,0-8.784-3.6-8.784-10.008s4.176-9.864,8.784-9.864C258.588-30.024,262.692-26.5,262.692-20.088Z" transform="translate(1053 693)" fill="#fff"/></g></g></svg>