<svg xmlns="http://www.w3.org/2000/svg" width="1333.859" height="797.589" viewBox="0 0 1333.859 797.589"><g transform="translate(-420.571 -141.205)"><path d="M154.375,41.834h-6.408v-3.8a11.889,11.889,0,0,0-11.873-11.876H61.881A11.889,11.889,0,0,0,50.007,38.034v3.8H43.6a4.062,4.062,0,0,0-4.06,4.06V66.772a4.062,4.062,0,0,0,4.06,4.06h7.02L52.065,87.8l3.206,37.677,5.417,63.649a4.057,4.057,0,0,0,4.046,3.712h68.789a4.058,4.058,0,0,0,4.044-3.713L140.5,154.7l2.693-31.662,4.445-52.2h6.728a4.062,4.062,0,0,0,4.06-4.06V45.9A4.062,4.062,0,0,0,154.375,41.834Zm-96.248-3.8a3.758,3.758,0,0,1,3.754-3.756h74.213a3.758,3.758,0,0,1,3.754,3.756v3.8H58.127Zm76.925,84.908-2.32,27.352h-67.2L63.3,124.009,60.53,91.519h77.2ZM68.471,184.727l-2.239-26.315h65.8l-2.241,26.315ZM138.418,83.4H59.839L58.77,70.832h80.718Zm11.9-20.686H47.66V49.953H150.315Z" transform="matrix(0.809, 0.588, -0.588, 0.809, 1447.484, 689.666)" fill="#fff" opacity="0.4"/><path d="M114.835,151h-6.408v3.8A11.889,11.889,0,0,1,96.554,166.68H22.341A11.889,11.889,0,0,1,10.467,154.8V151H4.06A4.062,4.062,0,0,1,0,146.944V126.065a4.062,4.062,0,0,1,4.06-4.06h7.02l1.445-16.968L15.731,67.36,21.148,3.712A4.057,4.057,0,0,1,25.194,0H93.984a4.058,4.058,0,0,1,4.044,3.713l2.932,34.429L103.653,69.8,108.1,122h6.728a4.062,4.062,0,0,1,4.06,4.06V146.94A4.062,4.062,0,0,1,114.835,151Zm-96.248,3.8a3.758,3.758,0,0,0,3.754,3.756H96.554a3.758,3.758,0,0,0,3.754-3.756V151H18.587ZM95.512,69.9l-2.32-27.352h-67.2L23.756,68.829l-2.765,32.49h77.2ZM28.931,8.11,26.693,34.425h65.8L90.253,8.11ZM98.878,109.439H20.3L19.23,122.006H99.948Zm11.9,20.687H8.12v12.759H110.775Z" transform="matrix(-0.809, 0.588, -0.588, -0.809, 1754.429, 868.916)" fill="#fff" opacity="0.4"/><g transform="translate(420.571 692.297) rotate(-30)" opacity="0.4"><path d="M23.779,199.747H4.756A4.756,4.756,0,0,1,0,194.991V4.756A4.756,4.756,0,0,1,4.756,0H137.921a4.756,4.756,0,0,1,4.756,4.756V23.779h-9.512V9.512H9.512V190.235H23.779Z" fill="#fff"/><path d="M48.8,53.552H10.749A4.786,4.786,0,0,1,7.372,45.42L45.42,7.372a4.786,4.786,0,0,1,8.133,3.377V48.8A4.756,4.756,0,0,1,48.8,53.552ZM22.211,44.04H44.04V22.211ZM72.576,172.449a4.756,4.756,0,0,1-4.423-6.516l19.024-47.559a4.756,4.756,0,0,1,7.8-1.617l28.535,28.535a4.756,4.756,0,0,1-1.617,7.8L74.335,172.116A4.471,4.471,0,0,1,72.576,172.449ZM93.359,128.6l-12.27,30.58,30.58-12.27Z" transform="translate(22.542 22.542)" fill="#fff"/><path d="M56.313,130.919a4.756,4.756,0,0,1-3.377-1.379L24.4,101a4.756,4.756,0,0,1,0-6.753l80.85-80.85a4.756,4.756,0,0,1,6.753,0L140.54,41.936a4.756,4.756,0,0,1,0,6.753L59.69,129.54A4.756,4.756,0,0,1,56.313,130.919ZM34.483,97.628l21.829,21.829,74.144-74.144L108.628,23.483Z" transform="translate(86.364 45.049)" fill="#fff"/><path d="M0,0H9.512V40.377H0Z" transform="translate(129.795 127.004) rotate(-45)" fill="#fff"/><path d="M0,0H9.512V40.377H0Z" transform="translate(172.599 84.212) rotate(-45)" fill="#fff"/><path d="M153.432,205.747H10.756A4.756,4.756,0,0,1,6,200.991V48.8a4.756,4.756,0,0,1,1.379-3.377L45.426,7.379A4.756,4.756,0,0,1,48.8,6H153.432a4.756,4.756,0,0,1,4.756,4.756V39.291h-9.512V15.512H50.753L15.512,50.753V196.235H148.677V134.409h9.512v66.582A4.756,4.756,0,0,1,153.432,205.747Z" transform="translate(22.535 22.535)" fill="#fff"/><path d="M11,132.9H53.8v9.512H11Zm0-23.779H49.047v9.512H11Zm0-23.779H58.559V94.85H11Zm0-23.779H39.535v9.512H11Zm38.047,0H77.582v9.512H49.047ZM11,37.779H58.559v9.512H11Zm57.071,0h33.291v9.512H68.071ZM49.047,14h66.582v9.512H49.047Z" transform="translate(41.315 52.582)" fill="#fff"/></g><path d="M261.87,239.956a10.2,10.2,0,0,0-12.9,6.45L183.714,442.181a10.2,10.2,0,1,0,19.347,6.451l65.258-195.775a10.2,10.2,0,0,0-6.449-12.9ZM157.091,285.925a10.2,10.2,0,0,0-14.42,0L88.29,340.307a10.2,10.2,0,0,0,0,14.42l54.382,54.382a10.2,10.2,0,1,0,14.418-14.42l-47.172-47.172,47.172-47.172a10.2,10.2,0,0,0,0-14.421Zm152.27,0a10.2,10.2,0,1,0-14.42,14.42l47.172,47.172-47.172,47.172a10.2,10.2,0,1,0,14.418,14.42l54.382-54.382a10.2,10.2,0,0,0,0-14.42Z" transform="translate(1215.485 -98.225)" fill="#fff" opacity="0.5"/></g></svg>